<?xml version="1.0" encoding="UTF-8"?>
<svg id="Layer_2" data-name="Layer 2" xmlns="http://www.w3.org/2000/svg" viewBox="0 0 71.39 43.74">
  <defs>
    <style>
      .cls-1 {
        fill: #e1a469;
      }

      .cls-2 {
        fill: #fff;
      }

      .cls-3 {
        fill: #66584c;
      }

      .cls-4 {
        fill: #ac7769;
      }

      .cls-5 {
        fill: #abb54e;
      }
    </style>
  </defs>
  <g id="Layer_1-2" data-name="Layer 1">
    <g>
      <rect class="cls-2" width="71.39" height="43.74" rx="4.82" ry="4.82"/>
      <g>
        <path class="cls-5" d="M23.64,14.4c-.94,1.05-2.39,2.91-4.36,5.6-1.97,2.68-2.4,4.4-3.19,5.17-.8.77-1.45,1.15-1.97,1.15-.39,0-.77-.29-1.14-.88-.37-.58-.85-1.77-1.44-3.54-1.22-3.62-1.98-5.71-2.3-6.26-.11.32-.24.85-.38,1.58-.3,1.54-.71,3.42-1.21,5.63-.98,4.25-1.53,7.06-1.67,8.44-.02.17-.17.36-.46.56-.29.2-.53.3-.71.3-.34,0-.66-.17-.95-.51-.29-.34-.43-.67-.43-1,0-.84.28-2.29.83-4.38l1.24-4.68c.76-2.95,1.23-5.11,1.41-6.5.18-1.39.27-2.48.27-3.28s.65-1.24,1.95-1.24c.28,0,.57.24.87.72.3.48.5.9.6,1.26.12.36.27.77.44,1.21l1.91,5.35c.75,2.19,1.21,3.42,1.39,3.7.18.28.32.42.43.42.48-.1,1.25-2.19,4.19-6.26,3.28-4.51,5.15-6.77,5.62-6.77.38,0,.8.15,1.26.45.46.3.69.56.69.78,0,.1-.28,2.18-.83,6.26-.2,1.51-.39,3.32-.56,5.44-.17,2.11-.26,3.31-.26,3.57,0,.48.09,1.03.26,1.62.15.53.23.96.23,1.28,0,.26-.05.63-.14,1.12-.1.49-.3.78-.62.86-.32.09-.57.13-.76.13-1,0-1.5-.83-1.5-2.49,0-1.52.33-5.24.98-11.16.05-.48.07-.77.07-.88,0-.08.06-.39.17-.95.09-.48.13-.87.13-1.2s-.02-.52-.07-.63Z"/>
        <path class="cls-1" d="M42.34,26.38c0,.97-.86,2.14-2.57,3.51-1.72,1.37-3.49,2.05-5.31,2.05-1.53,0-2.71-.45-3.54-1.35-.83-.9-1.25-2.16-1.25-3.78,0-2.72.92-5.3,2.75-7.75,1.83-2.45,3.84-3.68,6.02-3.68.71,0,1.29.23,1.75.7.45.47.68,1.03.68,1.68,0,1.46-.72,2.87-2.15,4.21-1.43,1.34-3.35,2.66-5.76,3.95-.49.26-.74.59-.74,1,0,.79.23,1.42.68,1.9.46.48,1.13.71,2.02.71,2.04,0,4.13-1.13,6.26-3.39.31-.31.55-.47.71-.47.3,0,.46.24.46.73ZM32.43,24.15c4.03-2.39,6.04-4.32,6.04-5.77,0-.57-.26-.86-.77-.86-.87,0-1.86.64-2.96,1.92-1.1,1.28-1.87,2.85-2.32,4.7Z"/>
        <path class="cls-4" d="M49.06,7.76c.59.14.61.37.69.97.1.77.27,2.29-.56,5.22-.52,1.84-.93,3.88-1.21,6.1-.29,2.22-.09,3.97-.09,5.23,0,1.57.1,3.13.3,4.68.04.29.06.51.06.64,0,.48-.16.88-.48,1.23-.32.34-.67.51-1.03.51-.5,0-.85-.31-1.05-.94-.19-.63-.29-1.64-.29-3.04,0-3.18.04-7.13.81-11.83.76-4.7,1.03-6.77,1.48-7.57.45-.8.92-1.31,1.38-1.2Z"/>
        <path class="cls-3" d="M59.93,32.12c-1.28,0-2.56-.36-3.73-1.07-2.47-1.51-3.74-4.22-3.3-7.06.34-2.22,1.23-4.1,2.64-5.61,1.52-1.62,3.66-2.4,5.89-2.15,2.27.26,4.23,1.55,5.37,3.52,1.15,1.99,1.46,4.34.86,6.46-.58,2.04-1.97,3.71-4.01,4.82-1.15.72-2.43,1.09-3.72,1.09ZM60.61,18.24c-1.36,0-2.64.55-3.57,1.55-1.13,1.2-1.84,2.72-2.11,4.52-.37,2.4.97,4.16,2.35,5,1.39.85,3.6,1.26,5.59-.17h0c1.45-.84,2.42-2.04,2.83-3.48.44-1.56.2-3.39-.66-4.87-.81-1.41-2.21-2.33-3.83-2.51-.2-.02-.39-.03-.59-.03Z"/>
        <path class="cls-5" d="M3.42,33.31v5.39c0,.85.69,1.54,1.54,1.54h20.98c.85,0,1.54-.69,1.54-1.54v-6.42s-13.04,6.7-24.06,1.03Z"/>
        <path class="cls-5" d="M3.42,11.41v-6.36c0-.85.69-1.54,1.54-1.54h20.98c.85,0,1.54.69,1.54,1.54v4.19S13.05,3.51,3.42,11.41Z"/>
        <path class="cls-1" d="M29.66,31.43v6.96c0,1.02.83,1.85,1.85,1.85h8.98c1.02,0,1.85-.83,1.85-1.85v-6.82s-9.91,4.69-12.67-.14Z"/>
        <path class="cls-1" d="M42.34,14.62V5.36c0-1.02-.83-1.85-1.85-1.85h-8.98c-1.02,0-1.85.83-1.85,1.85v9.1s9.98-3.67,12.67.16Z"/>
        <path class="cls-3" d="M67.96,16.62V5.06c0-.85-.7-1.55-1.55-1.55h-11.82c-.85,0-1.55.7-1.55,1.55v11.71s5.46-6.63,14.93-.15Z"/>
        <path class="cls-3" d="M53.03,30.43v8.25c0,.85.7,1.55,1.55,1.55h11.82c.85,0,1.55-.7,1.55-1.55v-7.93s-7.58,7.66-14.93-.33Z"/>
        <path class="cls-4" d="M44.71,32.8v6.56c0,.48.39.87.87.87h4.06c.64,0,1.17-.52,1.17-1.17v-6.48s-4.02,2.23-6.1.2Z"/>
        <path class="cls-4" d="M51.24,7.37v-2.75c0-.61-.5-1.11-1.11-1.11h-4.77c-.64,0-1.17.53-1.17,1.17v2.92s6.62-3.52,7.05-.23Z"/>
      </g>
    </g>
  </g>
</svg>