<?xml version="1.0" encoding="UTF-8"?>
<svg id="Layer_2" data-name="Layer 2" xmlns="http://www.w3.org/2000/svg" viewBox="0 0 93.23 22.46">
  <defs>
    <style>
      .cls-1, .cls-2 {
        fill: #5a3727;
      }

      .cls-3 {
        letter-spacing: 0em;
      }

      .cls-2 {
        font-family: Manrope-ExtraBold, Manrope;
        font-size: 14px;
        font-variation-settings: 'wght' 800;
        font-weight: 700;
      }

      .cls-4 {
        letter-spacing: -.01em;
      }
    </style>
  </defs>
  <g id="Layer_1-2" data-name="Layer 1">
    <g>
      <g>
        <path class="cls-1" d="M29.5,2H1c-.55,0-1-.45-1-1S.45,0,1,0h28.5c.55,0,1,.45,1,1s-.45,1-1,1Z"/>
        <path class="cls-1" d="M36.5,12.23H1c-.55,0-1-.45-1-1s.45-1,1-1h35.5c.55,0,1,.45,1,1s-.45,1-1,1Z"/>
        <path class="cls-1" d="M23.5,22.46H1c-.55,0-1-.45-1-1s.45-1,1-1h22.5c.55,0,1,.45,1,1s-.45,1-1,1Z"/>
      </g>
      <text class="cls-2" transform="translate(55.08 15.47)"><tspan x="0" y="0">M</tspan><tspan class="cls-4" x="12.04" y="0">e</tspan><tspan class="cls-3" x="20.34" y="0">nu</tspan></text>
    </g>
  </g>
</svg>