<?xml version="1.0" encoding="UTF-8"?>
<svg id="Layer_2" data-name="Layer 2" xmlns="http://www.w3.org/2000/svg" viewBox="0 0 106.87 30.68">
  <defs>
    <style>
      .cls-1 {
        fill: #f16522;
      }

      .cls-2 {
        fill: #fff;
      }
    </style>
  </defs>
  <g id="Layer_1-2" data-name="Layer 1">
    <g>
      <rect class="cls-2" x="0" y="0" width="106.87" height="30.68" rx="11.9" ry="11.9"/>
      <g>
        <path class="cls-1" d="M22.66,19.79c-1.01,0-1.88-.22-2.61-.66s-1.29-1.05-1.69-1.84c-.39-.79-.59-1.71-.59-2.75s.2-1.96.59-2.75.96-1.4,1.69-1.84,1.6-.66,2.61-.66,1.88.22,2.61.66,1.29,1.05,1.69,1.84.59,1.71.59,2.75-.2,1.96-.59,2.75c-.39.79-.96,1.4-1.69,1.84s-1.6.66-2.61.66ZM22.66,17.99c.64,0,1.17-.13,1.6-.41.42-.28.74-.69.96-1.21s.32-1.13.32-1.83-.11-1.31-.32-1.82c-.21-.51-.53-.91-.96-1.2-.42-.29-.96-.43-1.6-.44-.64,0-1.17.13-1.6.41s-.74.69-.96,1.21c-.21.52-.32,1.13-.32,1.83s.11,1.31.32,1.82c.21.51.53.91.96,1.2.42.29.96.43,1.6.44Z"/>
        <path class="cls-1" d="M28.95,19.58v-7.56h1.68v1.85l-.18-.24c.1-.26.23-.5.39-.71s.36-.39.6-.53c.18-.11.38-.2.6-.26.21-.06.44-.1.67-.12.23-.02.46-.01.69.02v1.78c-.21-.07-.45-.09-.73-.07-.28.02-.53.08-.75.19-.22.1-.41.24-.57.41-.15.17-.27.37-.35.6-.08.23-.12.49-.12.78v3.86h-1.92Z"/>
        <path class="cls-1" d="M37.64,19.79c-.7,0-1.3-.17-1.83-.53-.52-.35-.93-.83-1.22-1.43-.29-.6-.44-1.28-.44-2.04s.15-1.45.45-2.05c.3-.6.71-1.07,1.25-1.42.54-.35,1.17-.52,1.89-.52s1.32.17,1.81.52c.49.35.86.83,1.11,1.43.25.6.38,1.28.38,2.04s-.13,1.44-.38,2.04c-.25.6-.63,1.08-1.14,1.43-.5.35-1.13.53-1.88.53ZM37.95,18.09c.42,0,.76-.1,1.02-.29.25-.19.44-.46.55-.8.11-.34.17-.75.17-1.2s-.06-.86-.17-1.2c-.11-.34-.29-.61-.54-.8s-.57-.29-.96-.29c-.42,0-.77.1-1.05.31-.27.21-.48.49-.61.83-.13.35-.2.73-.2,1.15s.06.81.19,1.16.32.62.58.83c.26.21.6.31,1.01.31ZM39.68,19.58v-5.18h-.24v-4.9h1.92v10.08h-1.68Z"/>
        <path class="cls-1" d="M46.84,19.79c-.77,0-1.46-.17-2.05-.5-.59-.33-1.05-.79-1.39-1.38-.33-.58-.5-1.26-.5-2.01,0-.83.16-1.54.49-2.16.33-.61.78-1.09,1.35-1.42.57-.34,1.23-.51,1.98-.51.79,0,1.47.19,2.02.56.55.37.97.9,1.23,1.58.27.68.36,1.47.28,2.39h-1.88v-.7c0-.77-.12-1.32-.37-1.66-.24-.34-.64-.51-1.2-.51-.65,0-1.13.2-1.43.59s-.46.98-.46,1.75c0,.71.15,1.25.46,1.63s.75.58,1.35.58c.37,0,.69-.08.96-.25.27-.16.47-.4.61-.71l1.9.55c-.28.69-.73,1.23-1.35,1.61-.61.38-1.29.57-2.01.57ZM44.33,16.33v-1.41h5.01v1.41h-5.01Z"/>
        <path class="cls-1" d="M51.84,19.58v-7.56h1.68v1.85l-.18-.24c.1-.26.23-.5.39-.71s.36-.39.6-.53c.18-.11.38-.2.6-.26.21-.06.44-.1.67-.12.23-.02.46-.01.69.02v1.78c-.21-.07-.45-.09-.73-.07-.28.02-.53.08-.75.19-.22.1-.41.24-.57.41-.15.17-.27.37-.35.6-.08.23-.12.49-.12.78v3.86h-1.92Z"/>
        <path class="cls-1" d="M60.4,19.58v-10.08h1.93l4.38,6.72v-6.72h1.93v10.08h-1.93l-4.38-6.72v6.72h-1.93Z"/>
        <path class="cls-1" d="M74.01,19.79c-.76,0-1.43-.17-2-.51s-1.02-.81-1.34-1.41c-.32-.6-.48-1.29-.48-2.07s.16-1.48.49-2.08c.33-.6.78-1.07,1.35-1.4.57-.34,1.23-.5,1.98-.5s1.43.17,2.01.51,1.03.81,1.35,1.41c.32.6.48,1.29.48,2.07s-.16,1.48-.49,2.08-.77,1.07-1.35,1.41c-.58.34-1.24.51-2,.51ZM74.01,18.01c.61,0,1.07-.21,1.37-.62.3-.41.45-.94.45-1.59s-.15-1.21-.46-1.61-.76-.6-1.36-.6c-.42,0-.76.09-1.02.28-.27.19-.46.45-.59.78-.13.33-.19.72-.19,1.15,0,.68.15,1.21.46,1.61.31.4.75.6,1.35.6Z"/>
        <path class="cls-1" d="M80.72,19.58l-2.31-7.57h1.86s1.37,4.52,1.37,4.52l1.39-4.51h1.58l1.39,4.51,1.37-4.51h1.86l-2.31,7.56h-1.46l-1.65-4.93-1.65,4.93h-1.46Z"/>
      </g>
    </g>
  </g>
</svg>